<svg id="Layer_1" data-name="Layer 1" xmlns="http://www.w3.org/2000/svg" viewBox="0 0 430 321.13"><defs><style>.cls-1{fill:#fff;}.cls-2{fill:#4ab848;}.cls-3{fill:#942689;}</style></defs><title>vs</title><rect class="cls-1" width="430" height="321.13"/><path class="cls-2" d="M499.72,272.58a6.17,6.17,0,0,0-2.22-.17c-12.36,0-24.72-.05-37.08,0a4.07,4.07,0,0,1-4.18-2.44c-5.64-10.16-11.47-20.23-17.23-30.32l-16-28q-1.69-3-3.37-5.93a1.56,1.56,0,0,1-.39-1.15c1.34-.36,159.94-0.44,161.9-0.07a2.67,2.67,0,0,1-.75,1.74c-3.52,6.13-7.06,12.25-10.52,18.42a2.94,2.94,0,0,1-3,1.74c-11.4-.06-22.8,0-34.2,0H467.59c-2.55,0-2.61,0-1.79,2.43s1.71,4.56,2.56,6.85a1.09,1.09,0,0,0,1.1.75c0.66,0,1.32,0,2,0H560c2.94,0,3,0,1.53,2.59-3.48,6.09-7,12.14-10.53,18.22-2.39,4.15-4.75,8.32-7.14,12.48q-7.63,13.24-15.28,26.47l-16.9,29.27-11.05,19.14c-0.21.36-.46,0.69-0.72,1.08a3.12,3.12,0,0,1-1.31-1.68q-9.16-16-18.3-32c-0.5-.87-1.33-1.76-1.34-2.65s0.86-1.66,1.33-2.49q8.28-14.42,16.57-28.83c0.75-1.3,1.55-2.56,2.3-3.86A2.32,2.32,0,0,0,499.72,272.58Z" transform="translate(-269 -115.87)"/><path class="cls-3" d="M484.33,372.13Q436,288.4,387.71,204.77a2.25,2.25,0,0,1,1.77-.42c6.42,0,12.84,0,19.25,0a2.79,2.79,0,0,1,2.79,1.7q15.59,27.35,31.25,54.67l51.29,89.63c0.24,0.42.45,0.85,0.72,1.25a2.76,2.76,0,0,1,0,3.19c-3.17,5.44-6.31,10.9-9.46,16.35A2.08,2.08,0,0,1,484.33,372.13Z" transform="translate(-269 -115.87)"/></svg>